<svg width="99" height="81" viewBox="0 0 99 81" fill="none" xmlns="http://www.w3.org/2000/svg">
<path d="M0.310352 0.0977997C0.913919 -0.262021 1.29853 0.465236 1.62411 0.847902C22.5738 27.0539 43.5482 53.2408 64.496 79.4468C64.9263 79.8199 64.6007 80.6176 64.02 80.532C53.9897 80.5434 43.9576 80.5358 33.9273 80.5358C33.1238 80.5453 32.3546 80.1455 31.8615 79.5191C21.4542 66.518 11.0527 53.5112 0.645455 40.5081C0.203728 39.9827 -0.0247511 39.303 0.00380881 38.6195C0.00380881 26.0582 0.00761599 13.4949 0 0.933573C0.00571199 0.636579 -0.00571105 0.252008 0.310352 0.0977997Z" fill="url(#paint0_linear_205_25)"/>
<path d="M97.201 0.0369239C97.6294 -0.1249 98.1016 0.271093 98.0387 0.720392C98.054 13.2875 98.0368 25.8545 98.0464 38.4216C98.0749 39.1336 97.9188 39.8704 97.4561 40.4301C94.2936 44.3862 91.1272 48.3404 87.9647 52.2947C87.4373 52.98 86.5748 53.3589 85.7123 53.3151C75.7487 53.3056 65.7831 53.3208 55.8195 53.3075C55.2312 53.3989 54.8961 52.605 55.3302 52.2223C69.1475 34.9376 82.9762 17.6586 96.8011 0.377706C96.9059 0.229209 97.0392 0.11498 97.201 0.0369239Z" fill="url(#paint1_linear_205_25)"/>
<defs>
<linearGradient id="paint0_linear_205_25" x1="32.3466" y1="0.000610352" x2="32.3466" y2="80.5383" gradientUnits="userSpaceOnUse">
<stop stop-color="#FD4556"/>
<stop offset="1" stop-color="#80071F"/>
</linearGradient>
<linearGradient id="paint1_linear_205_25" x1="76.5912" y1="0" x2="76.5912" y2="53.3185" gradientUnits="userSpaceOnUse">
<stop stop-color="#FD4556"/>
<stop offset="1" stop-color="#80071F"/>
</linearGradient>
</defs>
</svg>
