<svg width="121" height="18" viewBox="0 0 121 18" fill="none" xmlns="http://www.w3.org/2000/svg">
<path d="M45.6313 0.637699C47.4775 0.354062 49.4155 0.680713 51.057 1.57812C52.6485 2.43949 53.9564 3.81467 54.7342 5.45023C55.5968 7.24388 55.7979 9.34094 55.3108 11.2706C54.8481 13.1387 53.7286 14.8335 52.201 16.0041C49.5887 18.0616 45.7604 18.365 42.8517 16.7573C41.1776 15.8588 39.8197 14.3906 39.0536 12.6516C38.0887 10.4918 38.0759 7.93089 39.0164 5.75944C40.1499 3.06721 42.7377 1.05502 45.6313 0.637699ZM46.0975 3.54381C44.2444 3.82396 42.6145 5.13986 41.8879 6.85911C41.1369 8.57024 41.2845 10.6452 42.2855 12.225C43.1063 13.556 44.506 14.5254 46.0545 14.7742C47.6286 15.0509 49.305 14.5638 50.5048 13.513C51.8731 12.3424 52.6137 10.4964 52.459 8.70392C52.3428 7.10439 51.522 5.56996 50.242 4.59932C49.0818 3.70191 47.5472 3.30551 46.0975 3.54381Z" fill="url(#paint0_linear_205_45)"/>
<path d="M0 1.03408C0.718462 0.838793 1.47761 0.99688 2.21235 0.941083C2.47393 0.977118 2.87152 0.842275 3.01917 1.13754C3.07032 1.52231 3.03777 1.91173 3.04242 2.29998C3.04242 5.68386 3.04126 9.06891 3.04242 12.4528C6.00927 8.74575 8.97263 5.03638 11.936 1.32702C12.0906 1.13405 12.301 0.963172 12.5603 0.958522C13.4113 0.921324 14.2634 0.96317 15.1156 0.942246C15.4341 0.948058 15.7876 0.887615 16.0596 1.09918C15.0679 2.40577 14.017 3.66702 13.0009 4.95501C9.955 8.76784 6.90793 12.5795 3.86086 16.3912C3.63416 16.6678 3.43536 16.9724 3.16449 17.2118C2.89826 17.4316 2.5274 17.363 2.20886 17.3804C1.47296 17.3548 0.732412 17.4199 0 17.3293V1.03408Z" fill="url(#paint1_linear_205_45)"/>
<path d="M20.6004 1.62462C20.9166 1.19568 21.4351 0.935296 21.9688 0.94692C22.6268 0.948083 23.2859 0.935294 23.9439 0.952731C24.1706 0.92832 24.2974 1.16313 24.2683 1.36307C24.2683 6.55921 24.2683 11.7565 24.2683 16.9526C24.2985 17.1526 24.1765 17.3967 23.9439 17.3711C23.129 17.3804 22.314 17.3804 21.4991 17.37C21.2003 17.3781 20.9643 17.1677 20.7969 16.9433C19.3879 15.1741 17.9719 13.4107 16.5629 11.6414C15.1283 13.4281 13.7018 15.2206 12.2707 17.0108C12.1172 17.2072 11.8952 17.3723 11.6348 17.3688C10.7012 17.3897 9.76653 17.3641 8.83184 17.3793C8.60281 17.3641 8.31566 17.4374 8.17383 17.1991C12.2916 11.989 16.4652 6.82076 20.6004 1.62462ZM18.2788 9.16193C19.246 10.3651 20.1993 11.5787 21.1736 12.7748C21.1805 10.3627 21.1782 7.95182 21.1759 5.53974C20.2075 6.7452 19.2426 7.95298 18.2788 9.16193Z" fill="url(#paint2_linear_205_45)"/>
<path d="M27.9591 1.35956C27.937 1.17589 28.037 0.950374 28.2497 0.955024C29.0693 0.935262 29.8924 0.943403 30.7132 0.95154C30.948 0.925966 31.0945 1.15846 31.0573 1.37351C31.0619 5.72803 31.0596 10.0826 31.0584 14.4382C33.3371 14.4464 35.6157 14.4324 37.8931 14.4441C38.0884 14.4022 38.2105 14.6498 38.0559 14.7812C37.463 15.5449 36.8503 16.2947 36.2469 17.0526C36.0644 17.299 35.7552 17.399 35.4576 17.3769C33.0557 17.3688 30.6527 17.3862 28.2509 17.3688C28.03 17.3781 27.9381 17.1386 27.9591 16.9538C27.9591 11.7565 27.9579 6.55802 27.9591 1.35956Z" fill="url(#paint3_linear_205_45)"/>
<path d="M58.3224 1.36541C58.269 1.12595 58.462 0.908568 58.7049 0.948091C62.8576 0.943441 67.0091 0.945772 71.1606 0.946935C71.3524 0.920198 71.5791 1.03993 71.5605 1.25847C71.5733 2.38372 71.5628 3.51013 71.5652 4.63538C71.5896 4.9039 71.4477 5.13987 71.2827 5.33749C70.0841 6.81961 68.9052 8.31684 67.7031 9.79663C67.6438 9.90125 67.4462 10.0396 67.5962 10.1605C69.4121 12.4435 71.2431 14.7161 73.0567 17.0003C73.1881 17.1096 73.1904 17.37 72.9753 17.3642C71.8988 17.3874 70.8211 17.3758 69.7446 17.37C69.3226 17.3758 69.0843 16.984 68.8506 16.6958C67.1835 14.6045 65.5152 12.5144 63.8423 10.429C63.7179 10.2756 63.5272 10.0535 63.7004 9.86406C65.2757 7.86465 66.88 5.88616 68.4635 3.89141C66.1186 3.88094 63.7725 3.91117 61.4288 3.87629C61.387 8.27034 61.4311 12.6667 61.4067 17.0608C61.4335 17.2654 61.2219 17.4014 61.0382 17.3735C60.2244 17.3735 59.4106 17.3862 58.5968 17.3676C58.3806 17.37 58.2934 17.127 58.3213 16.9468C58.3224 11.753 58.3213 6.55922 58.3224 1.36541Z" fill="url(#paint4_linear_205_45)"/>
<path d="M75.7016 1.37354C75.6644 1.1643 75.8004 0.924831 76.0352 0.951567C76.8107 0.937618 77.5884 0.945752 78.365 0.948077C78.6556 0.93064 78.937 1.06665 79.1079 1.30263C82.9827 6.15003 86.8563 10.9986 90.7311 15.846C91.0648 16.2935 91.4647 16.6957 91.7542 17.1758C91.7263 17.2212 91.6705 17.3118 91.6426 17.3572C90.7032 17.4048 89.7604 17.3572 88.8199 17.3781C88.449 17.3839 88.0003 17.4153 87.755 17.0759C86.2995 15.2706 84.8579 13.4537 83.4094 11.6426C81.9748 13.4281 80.5471 15.2206 79.1172 17.0096C78.9637 17.2084 78.7393 17.3711 78.4789 17.37C77.6675 17.3816 76.856 17.3781 76.0457 17.3723C75.8039 17.406 75.6632 17.1619 75.7016 16.9492C75.7016 11.7577 75.7027 6.56502 75.7016 1.37354ZM78.7952 5.54788C78.7917 7.95879 78.7917 10.3685 78.7952 12.7795C79.7624 11.5752 80.725 10.3674 81.6888 9.16076C80.7227 7.95763 79.7671 6.7452 78.7952 5.54788Z" fill="url(#paint5_linear_205_45)"/>
<path d="M89.3638 1.37822C89.3394 1.19804 89.4196 0.96323 89.6324 0.95858C90.4055 0.927194 91.1797 0.953932 91.9528 0.945795C92.2528 0.926034 92.5667 1.02484 92.7492 1.27593C95.7311 4.99808 98.7015 8.72953 101.686 12.4494C101.686 8.75627 101.685 5.06318 101.686 1.36892C101.636 1.13643 101.817 0.910917 102.06 0.948115C102.879 0.949278 103.697 0.929519 104.514 0.95858C104.724 0.966718 104.799 1.19921 104.776 1.37822C104.776 6.56738 104.776 11.7565 104.776 16.9457C104.8 17.1224 104.722 17.3619 104.511 17.3654C103.698 17.3886 102.883 17.3723 102.071 17.3735C101.802 17.384 101.547 17.2549 101.389 17.0422C98.4108 13.3235 95.4428 9.59556 92.462 5.87922C92.4585 8.05881 92.4678 10.2396 92.4585 12.4191C92.5155 12.6133 92.2388 12.7795 92.1214 12.6028C91.2658 11.5647 90.4392 10.5023 89.5952 9.4549C89.4068 9.24915 89.3464 8.97248 89.3603 8.70163C89.365 6.2605 89.3592 3.81936 89.3638 1.37822Z" fill="url(#paint6_linear_205_45)"/>
<path d="M106.913 1.25725C106.889 1.04569 107.115 0.923625 107.299 0.948037C110.713 0.942224 114.126 0.948042 117.539 0.945717C117.835 0.927117 118.144 1.0236 118.324 1.27236C118.929 2.02563 119.539 2.77657 120.133 3.53913C120.29 3.667 120.172 3.92041 119.975 3.88554C118.19 3.89949 116.405 3.88554 114.619 3.89135C114.611 8.24355 114.629 12.5957 114.628 16.9479C114.67 17.156 114.527 17.3955 114.295 17.3711C113.48 17.3781 112.663 17.3815 111.85 17.3699C111.676 17.385 111.525 17.2316 111.543 17.0607C111.514 12.6713 111.542 8.28075 111.518 3.89135C110.11 3.88786 108.701 3.89601 107.295 3.88903C107.108 3.91112 106.884 3.78208 106.913 3.57052C106.902 2.79981 106.901 2.02795 106.913 1.25725Z" fill="url(#paint7_linear_205_45)"/>
<defs>
<linearGradient id="paint0_linear_205_45" x1="46.9454" y1="0.53833" x2="46.9454" y2="17.7837" gradientUnits="userSpaceOnUse">
<stop stop-color="#FD4556"/>
<stop offset="1" stop-color="#80071F"/>
</linearGradient>
<linearGradient id="paint1_linear_205_45" x1="8.0298" y1="0.932983" x2="8.0298" y2="17.3804" gradientUnits="userSpaceOnUse">
<stop stop-color="#FD4556"/>
<stop offset="1" stop-color="#80071F"/>
</linearGradient>
<linearGradient id="paint2_linear_205_45" x1="16.2233" y1="0.943481" x2="16.2233" y2="17.3793" gradientUnits="userSpaceOnUse">
<stop stop-color="#FD4556"/>
<stop offset="1" stop-color="#80071F"/>
</linearGradient>
<linearGradient id="paint3_linear_205_45" x1="33.041" y1="0.942749" x2="33.041" y2="17.3799" gradientUnits="userSpaceOnUse">
<stop stop-color="#FD4556"/>
<stop offset="1" stop-color="#80071F"/>
</linearGradient>
<linearGradient id="paint4_linear_205_45" x1="65.7306" y1="0.943237" x2="65.7306" y2="17.3781" gradientUnits="userSpaceOnUse">
<stop stop-color="#FD4556"/>
<stop offset="1" stop-color="#80071F"/>
</linearGradient>
<linearGradient id="paint5_linear_205_45" x1="83.7248" y1="0.943604" x2="83.7248" y2="17.3815" gradientUnits="userSpaceOnUse">
<stop stop-color="#FD4556"/>
<stop offset="1" stop-color="#80071F"/>
</linearGradient>
<linearGradient id="paint6_linear_205_45" x1="97.0693" y1="0.942627" x2="97.0693" y2="17.378" gradientUnits="userSpaceOnUse">
<stop stop-color="#FD4556"/>
<stop offset="1" stop-color="#80071F"/>
</linearGradient>
<linearGradient id="paint7_linear_205_45" x1="113.555" y1="0.943481" x2="113.555" y2="17.3775" gradientUnits="userSpaceOnUse">
<stop stop-color="#FD4556"/>
<stop offset="1" stop-color="#80071F"/>
</linearGradient>
</defs>
</svg>
